<svg xmlns="http://www.w3.org/2000/svg" width="656" height="649" fill="none">
  <path stroke="#FFBD59" stroke-width="3" d="M260.96 384.51c-44.5-72.57-73.7-145-84.98-203.4-5.64-29.22-6.78-54.87-3.14-75.25 3.63-20.4 12.02-35.4 25.34-43.55 13.32-8.15 30.51-8.8 50.34-2.77 19.84 6.03 42.19 18.7 65.67 36.99 46.97 36.57 98.29 95.47 142.79 168.04 44.5 72.57 73.7 145 84.97 203.41 5.64 29.21 6.78 54.86 3.14 75.25-3.63 20.38-12.02 35.39-25.34 43.54-13.32 8.15-30.51 8.8-50.35 2.77-19.83-6.03-42.18-18.7-65.66-36.99-46.97-36.56-98.29-95.46-142.78-168.04Z"/>
  <path stroke="#BEA495" stroke-width="3" d="M274.2 210.19c75.28-39.85 149.46-64.45 208.52-72.06 29.53-3.8 55.23-3.34 75.37 1.56 20.14 4.9 34.62 14.19 41.93 27.98 7.31 13.78 6.88 30.97-.37 50.37-7.26 19.4-21.3 40.89-41.04 63.17-39.46 44.55-101.5 92.04-176.78 131.89-75.28 39.84-149.46 64.45-208.52 72.05-29.53 3.8-55.23 3.35-75.37-1.55-20.14-4.9-34.61-14.2-41.92-27.98-7.32-13.79-6.9-30.97.36-50.37 7.26-19.4 21.31-40.9 41.05-63.17 39.46-44.55 101.5-92.04 176.77-131.89Z"/>
</svg>
