<svg xmlns="http://www.w3.org/2000/svg" version="1.1" xmlns:xlink="http://www.w3.org/1999/xlink" xmlns:svgjs="http://svgjs.com/svgjs" width="1000" height="1000"><rect width="1000" height="1000" rx="400" ry="400" fill="#838383"></rect><g transform="matrix(40.90909090909091,0,0,40.90909090909091,50,49.999191219156444)"><svg xmlns="http://www.w3.org/2000/svg" version="1.1" xmlns:xlink="http://www.w3.org/1999/xlink" xmlns:svgjs="http://svgjs.com/svgjs" width="22" height="22"><svg width="22" height="22" viewBox="0 0 22 22" xmlns="http://www.w3.org/2000/svg">
<path d="M11 3.20834C3.17992 3.20834 2.13568 3.28981 1.1333 4.32106C0.130926 5.35231 0 6.99051 0 11C0 15.0095 0.130926 16.6482 1.1333 17.679C2.13568 18.7098 3.17992 18.7917 11 18.7917C18.8201 18.7917 19.8643 18.7098 20.8667 17.679C21.8691 16.6477 22 15.0095 22 11C22 6.99051 21.8691 5.35231 20.8667 4.32106C19.8643 3.28981 18.8201 3.20834 11 3.20834ZM11 5.04168C17.4025 5.04168 18.9654 5.07029 19.4953 5.60654C20.0251 6.14279 20.1667 7.57993 20.1667 11C20.1667 14.4201 20.0251 15.8572 19.4953 16.3935C18.9654 16.9297 17.4025 16.9583 11 16.9583C4.59754 16.9583 3.03455 16.9297 2.50472 16.3935C1.97489 15.8572 1.84766 14.4201 1.84766 11C1.84766 7.57993 1.97489 6.14279 2.50472 5.60654C3.03455 5.07029 4.59754 5.04168 11 5.04168ZM9.14339 7.79973V14.2003L14.7105 10.9749L9.14339 7.79973Z" fill="currentColor"></path>
</svg></svg></g></svg>