<svg xmlns="http://www.w3.org/2000/svg" xml:space="preserve" width="800" height="800" viewBox="0 0 512 512">
  <path d="M83.6 256c0-6.3-2.8-12.6-7.7-16.8-4.2-4.2-9.8-5.6-18.2-5.6h-3.5V279h4.2a27 27 0 0 0 18.2-5.6 21 21 0 0 0 7-17.5zm358.6-23.8H438v21h4.2c8.4 0 13.3-3.5 13.3-10.5s-5-10.5-13.3-10.5z"/>
  <path d="M504 133.4a8 8 0 0 0 8-8v-11a37.4 37.4 0 0 0-37.4-37.5H37.4A37.4 37.4 0 0 0 0 114.3v283.4A37.4 37.4 0 0 0 37.4 435h437.2a37.4 37.4 0 0 0 37.4-37.4V151.5a8 8 0 1 0-16.2 0v246.2c0 11.7-9.5 21.2-21.2 21.2H37.4a21.3 21.3 0 0 1-21.2-21.2V114.3c0-11.7 9.5-21.2 21.2-21.2h437.2c11.7 0 21.2 9.5 21.2 21.2v11a8 8 0 0 0 8.1 8.1z"/>
  <path d="M228.1 271.8v-.4c-.1.1 0 .2 0 .4z"/>
  <path d="M488 280.6 477 266a35.8 35.8 0 0 0 8.6-24.1c0-21.8-16.3-36.5-40.6-36.5h-20.3a17 17 0 0 0-4.6.7 17 17 0 0 0-4.6-.7H377c-1 0-1.9.1-2.8.3-.9-.2-1.8-.3-2.8-.3h-14.7c-6.5 0-12.5 4-15 10l-1.3 3.3c-.9 1.2-1.7 2.5-2.2 4l-.4 1-3.1-8a16.2 16.2 0 0 0-15-10.3h-14.8c-3.6 0-7 1.2-9.9 3.4a52.4 52.4 0 0 0-23.4-5.5h-.3a52.4 52.4 0 0 0-30.7 9.8 16.1 16.1 0 0 0-5.5-4.6 51.4 51.4 0 0 0-25.2-5.8 56.7 56.7 0 0 0-32 12.8 46.3 46.3 0 0 0-29.9-10.8c-7 0-13.8 1.8-19.7 5.2a16.1 16.1 0 0 0-11-4.5h-13.4c-5.8 0-10.9 3-13.7 7.7-8.4-5-18.5-7.7-29.7-7.7H41c-9 0-16.2 7.3-16.2 16.2v68.6c0 9 7.3 16.2 16.2 16.2h19.6c11.4 0 21.1-2.6 29.6-7.8 2.9 4.7 8 7.8 13.8 7.8h13.3c3.1 0 6-.9 8.5-2.4a42.7 42.7 0 0 0 21 5.2 40.9 40.9 0 0 0 30.7-13.2 53 53 0 0 0 34.4 11.8 56 56 0 0 0 23.4-5.6c2-1 3.8-2.2 5.2-3.8a52.3 52.3 0 0 0 68.2-5.2c2-2 3.7-4.1 5.3-6.4l4.7 11.6c2.5 6 8.4 10 15 10h7.7a16 16 0 0 0 14.9-9.8l4.7-11v2.6c0 9 7.2 16.2 16.1 16.2h38.5a17 17 0 0 0 4.6-.7c1.4.4 3 .7 4.6.7H438c4 0 7.6-1.5 10.5-3.9a16 16 0 0 0 10.5 3.9h16a16.2 16.2 0 0 0 13-26zm-403 2a38 38 0 0 1-24.5 7.7H41v-68.6h22.2l1.5.1.5.1 1.5.2h.5l1.4.2.5.1 1.4.3h.4l1.5.4.3.1 1.5.5h.2l1.5.6h.2l1.5.6h.2l1.5.8 1.6.8a35.5 35.5 0 0 1 5.6 3.9l1.3 1.1a33 33 0 0 1 9.8 24.5c0 10.5-4.9 20.3-12.6 26.6zm32.2-20v27.7H104v-68.6h13.3v40.8zm49.3 21.2a19.8 19.8 0 0 1-4 4.2l-.6.5-1.4.9-.5.3-1.3.7-.4.2a23.3 23.3 0 0 1-4.2 1.6h-.3l-1.8.4-.5.1-2 .3h-.6a31 31 0 0 1-4 0H143l-.1-.1a24.3 24.3 0 0 1-9.6-3c-4-2.2-7.4-5.5-10.6-10l8.4-8.5a16.7 16.7 0 0 0 4.7 5.7l3 1.8h.1l1.5.7h.2l1.5.5h.2l1.5.3h.4l1.6.1c6.3 0 10.5-4.2 10.5-9.8 0-2.8-1.4-5.6-4.2-7-1.4-1.4-3.5-2.1-9-4.2a98.3 98.3 0 0 1-6.6-2.9l-.7-.4a34.7 34.7 0 0 1-1.7-1c-5.7-3.5-7.9-7.7-7.9-14.6a19 19 0 0 1 10.2-16.7l1.7-.8.2-.1c.5-.2 1-.5 1.6-.6l.4-.2 1.5-.4.7-.2 1.2-.2 1.1-.2 1-.1a24.7 24.7 0 0 1 4.7 0h.2c.8 0 1.5.2 2.3.3h.3a30.4 30.4 0 0 1 4.7 1.3h.3l2.1 1h.2l2.2 1.1c2 1.1 3.8 2.4 5.4 3.9l-5.8 7.6-1.2 1.5c-3.5-4.2-7-5.6-11.2-5.6-5.6 0-9.8 3.5-9.8 7.7 0 3.5 2.1 5.6 10.5 8.4l2 .7.4.2a85 85 0 0 1 3.7 1.5l1.8.9c9 4.5 11.7 9.5 11.7 19.1 0 5-1.4 9.6-4 13.1zm62 3.7a39.6 39.6 0 0 1-16.7 4.2h-3.1l-1.4-.2h-.6l-1.2-.2h-.6l-1.2-.3h-.4l-1.4-.4h-.4l-1.4-.4-.3-.2c-.4 0-.9-.2-1.4-.4h-.2l-1.4-.6-.2-.1-1.4-.6h-.2l-1.4-.8a35 35 0 0 1-16.9-43.1 36.7 36.7 0 0 1 7.5-12.6l1.4-1.5.1-.1 1.6-1.4a40.6 40.6 0 0 1 23.8-10c6.3 0 11.2 1.5 16.8 4.3v16.1a33.5 33.5 0 0 0-7.7-5.7h-.1c-1-.5-1.8-.9-2.7-1.1l-.3-.1-1.2-.3h-.2c-.4-.2-.9-.2-1.4-.3h-.2l-1.2-.1h-.4l-1.4-.1c-5.9 0-11 2.4-14.9 6.2a26.3 26.3 0 0 0-6.8 17.6c0 14 9.7 23.7 22.8 23.8h1.6l1-.2h.2l2.4-.6h.2a18.4 18.4 0 0 0 5-2.5c1.7-1.1 3.7-2.6 5.5-4.4v.7l.5 14.5v1zm-9.7-29.4c-.9.5-1.6 1.2-2.4 1.9-2.5 2.6-3.7 2.9-4.3 3-5.7-.3-6.6-5-6.6-7.7 0-1.7.4-3.8 3.1-7l.2-.2c.7-.3 1.5-.4 2.3-.4 1.4 0 2.4 0 5.3 3a16 16 0 0 0 2.4 1.9v5.4zm87.2 9.2-1.5 3.8-.1.3a31.8 31.8 0 0 1-1.3 2.4v.1a36 36 0 0 1-2 3.3c-.2 0-.2.2-.3.3a27.9 27.9 0 0 1-1.6 2l-.3.3c-.7 1-1.5 1.8-2.4 2.6l-.4.4a41.1 41.1 0 0 1-1.8 1.6l-.6.4-.7.5-1.1.9-.7.4a33.2 33.2 0 0 1-2 1.2l-.7.4-.9.4-.6.3-1.4.6-.4.2a39.7 39.7 0 0 1-2.7 1l-.6.2-1 .3-.6.1-1.6.4h-.2l-1.4.3h-.6a38.5 38.5 0 0 1-3 .3h-.5a38.3 38.3 0 0 1-3.6 0h-1.9l-.7-.2-1.2-.1-.6-.1-1.2-.3-.6-.1-1.2-.3-.6-.2a33 33 0 0 1-1.2-.3l-.5-.2-1.3-.4-.4-.2-1.3-.5-.4-.2a33.9 33.9 0 0 1-2.9-1.5l-.3-.1-1.3-.8-.2-.2-1.3-.8-.2-.2-1.3-1-1.4-1.1a36.3 36.3 0 0 1-12.4-26.9l-.1-.6v-2.3a36 36 0 0 1 16.1-28.1h.2l1.4-1 .3-.1 1.3-.7.5-.3 1.2-.5.5-.3a37.5 37.5 0 0 1 2.9-1.1l.6-.2a35 35 0 0 1 4.8-1.2l.8-.2 1.2-.1.7-.1 1.3-.1h.6l2-.1h3l1.4.2h.6c1.4.3 2.8.5 4.1.9h.3l1.8.5.3.1a35.3 35.3 0 0 1 6 2.6 35.5 35.5 0 0 1 18.9 32v.1c0 4-.6 7.7-1.7 11.3zm35.3 25.1h-7.7L305 221.7h14.7l18.2 46.2 15.9-39 3-7.2h14.7l-30 70.7zm74.2-58.8H391v14.7h24v12h-24V279h24.5v11.2H377v-68.6h38.5v11.9zm43.5 56.7L440 263h-2v27.3h-13.3v-68.6H445c15.4 0 24.5 7.7 24.5 20.3 0 10.5-5.6 17.5-16.1 19.6l21.7 28.7H459z"/>
</svg>
