<svg xmlns="http://www.w3.org/2000/svg" width="2500" height="839" viewBox="0 0 459.2 153.6">
  <path fill="#ffd100" d="M434 152.9a25.3 25.3 0 1 0-25.4-25.3A25.3 25.3 0 0 0 434 153z"/>
  <path fill="#061ab1" d="M72.9 71.5v33h27.6c-4 6.4-13.2 9.7-19.3 9.7-20.8 0-31.2-11.8-31.2-35.6C50 52.3 63.7 39 91 39c10.7 0 24.9 2.7 40 7.5V6.8c-4.4-1.8-11-3.3-19.5-4.7a141.6 141.6 0 0 0-23-2.1C61.4 0 40 7.2 24 21.7S0 55.7 0 80.3q0 33.8 18.7 53.4 18.7 19.9 50.4 19.9c21.3 0 40.8-11 47.1-25l-.1 22.5h30.8V71.5zm89.3 79.6V2.5H210v109.9h52V151zm117.3-3.8v-40.5a191.2 191.2 0 0 0 24.7 5.8 142 142 0 0 0 24.3 2.5c11.6 0 17.7-3 17.7-8.1 0-3.3-2-5-10.4-6.8l-16.6-3.8c-28.5-6.4-41.8-20.7-41.8-44.9A47 47 0 0 1 294 13.7C305 4.6 320.4 0 339.7 0a226 226 0 0 1 46.1 5.8v38.7a239 239 0 0 0-23.5-4.8 149.2 149.2 0 0 0-22-2c-10.1 0-16 2.9-16 8 0 3.1 2.7 5.2 8.4 6.7l19.3 4.5c28.2 6.6 41.3 21.1 41.3 45.8 0 15.7-5.8 28.1-17.3 37.2s-27.2 13.7-47.3 13.7c-19 0-38.4-2.7-49.2-6.3z"/>
</svg>
