<svg xmlns="http://www.w3.org/2000/svg" xml:space="preserve" width="800" height="800" viewBox="0 0 512 512">
  <path d="M504 153.9a8 8 0 0 0 8-8.1v-31.5A37.4 37.4 0 0 0 474.6 77H37.4A37.4 37.4 0 0 0 0 114.3v283.4A37.4 37.4 0 0 0 37.4 435h437.2a37.4 37.4 0 0 0 37.4-37.4V172a8 8 0 1 0-16.2 0v225.7c0 11.7-9.5 21.2-21.2 21.2H37.4a21.3 21.3 0 0 1-21.2-21.2V114.3c0-11.7 9.5-21.2 21.2-21.2h437.2c11.7 0 21.2 9.5 21.2 21.2v31.5a8 8 0 0 0 8.1 8z"/>
  <path d="M260.6 230.7h20.1v-7.2H253v40.2h27.8v-7.2h-20a.5.5 0 0 1-.6-.5v-8.3c0-.3.2-.5.5-.5h20.1V240h-20a.5.5 0 0 1-.6-.5v-8.3c0-.3.2-.5.5-.5zm50.8-7.2h-9.2l-12.1 31.2-3.5 9h9.5a525.6 525.6 0 0 1 1.4-3.7c2.9-7.8 3.2-7.8 3.6-7.8h11.4c.5 0 .8 0 5 11.5h10l-16.1-40.2zm-.8 21.3H303a.5.5 0 0 1-.5-.7l.6-1.7a128.5 128.5 0 0 1 1.5-4.6l1.6-4.7c0-.2.3-.4.5-.4s.4.2.5.4l1.6 4.7a205.7 205.7 0 0 0 1.9 5.5l.2.6a.5.5 0 0 1-.4.9z"/>
  <path d="M345.6 187.1a78.7 78.7 0 0 0-26-14.8c-11.7-3.9-24.6-6-38.5-6.4H150v188.3h127.2c32.7 0 56.3-7.5 72.2-23 16-15.6 24-39 24.1-71.6 0-32.2-9-56-27.8-72.6zM166.1 182h36.6v24.7a39.1 39.1 0 0 0-36.6-2.1V182zm36.8 160.5h-41.2v-70H203v70zm-.3-90.9a22 22 0 0 1-3.4 4.7 23.1 23.1 0 0 1-40-16 23.2 23.2 0 0 1 14.2-21.4h.2l1.9-.7.6-.1 1.6-.4 1-.2 1.3-.2a23.2 23.2 0 0 1 6.8.4h.3l2 .5.4.2 1.6.5.4.2 1.7.8.5.3 1.3.8c.2 0 .3.2.4.3l1.6 1.1.4.4 1 1c.2 0 .3.2.5.4l1.2 1.4c.2 0 .3.2.4.3l.8 1.2.4.6a22.4 22.4 0 0 1 3.8 12.7c0 4-1 8-2.9 11.2zm16.2-19.3V231h6.3c8.7 0 11.6 5.2 11.6 13.3 0 8.9-5 12-10 12h-8v-23.9zm113.2 97c-14.5 9.8-34.5 14.6-61 14.6h-51.6a.5.5 0 0 1-.5-.6v-79.6h8.4c12.2 0 18.2-8.7 18.2-20.3 0-13.4-7.8-19.9-18.2-19.9h-8.4v-41.7c0-.3.2-.6.5-.6H271c56.4 0 86.5 23.7 89.6 70.5v.1c0 .3-.2.6-.5.6h-17a.5.5 0 0 1-.5-.6v-28.3h-11.3v41h29.2a.5.5 0 0 1 .5.5c-.2 30-9.9 51.6-28.9 64.3z"/>
  <path d="M395.3 203.3a106.5 106.5 0 0 0-27.7-41.3c-.2 0-.3-.2-.4-.3a118.5 118.5 0 0 0-38.6-21.6 153 153 0 0 0-47.1-8H132.9c-9.2 0-16.7 7.5-16.7 16.7v222.6c0 9.2 7.5 16.7 16.7 16.7h148.6c34.4-.5 65.6-10.7 85.6-28 25.5-21.6 38.4-55.4 38.4-100.4 0-20.4-3.4-39.4-10.2-56.4zm-38.7 144.6c-17.2 14.8-44.6 23.6-75.3 24H132.9a.5.5 0 0 1-.6-.5V148.8c0-.3.3-.5.6-.5h148.4c14.5.2 29.1 2.6 42.1 7.1a102.7 102.7 0 0 1 33.2 18.5 90.7 90.7 0 0 1 23.7 35.3c6 15 9 32 9 50.5 0 40-11 69.7-32.7 88.2z"/>
</svg>
