<svg xmlns="http://www.w3.org/2000/svg" xml:space="preserve" width="800" height="800" viewBox="0 0 512 512">
  <path d="M504 153.9a8 8 0 0 0 8-8.1v-31.5A37.4 37.4 0 0 0 474.6 77H37.4A37.4 37.4 0 0 0 0 114.3v283.4A37.4 37.4 0 0 0 37.4 435h437.2a37.4 37.4 0 0 0 37.4-37.4V172a8 8 0 1 0-16.2 0v225.7c0 11.7-9.5 21.2-21.2 21.2H37.4a21.3 21.3 0 0 1-21.2-21.2V114.3c0-11.7 9.5-21.2 21.2-21.2h437.2c11.7 0 21.2 9.5 21.2 21.2v31.5a8 8 0 0 0 8.1 8z"/>
  <path d="M408.4 129.7h-51a60 60 0 0 0-38.6 13c-1.7-7.4-8.4-13-16.3-13H251a60 60 0 0 0-37 11.7 16.7 16.7 0 0 0-16-11.7h-51.9a58.6 58.6 0 0 0-42 16.4 58.6 58.6 0 0 0-16.3 42v75.5c0 1.1 0 2.3.3 3.4a34 34 0 0 0 2 6.5 16.7 16.7 0 0 0-2.3 8.7v83.4c0 9.2 7.4 16.7 16.7 16.7h53.4c12.1 0 24.7-4.8 35.1-13.3a16.7 16.7 0 0 0 16.4 13.3h52.9a57 57 0 0 0 36.4-14.3c1.2 8 8.2 14.3 16.5 14.3h53a58 58 0 0 0 38.5-16.2 55.7 55.7 0 0 0 18.4-40.7v-179c0-9.2-7.5-16.7-16.7-16.7zM198.6 243v82.4c0 7.3-2.2 14.2-6 20-.4.8-1 1.6-1.5 2.3-1 1.5-2.2 3-3.4 4.3h-.1l-1.8 1.9a46.8 46.8 0 0 1-4.1 3.5l-.2.1-2 1.5h-.1l-2.2 1.4h-.1l-2 1.2-.5.2-2 1h-.2l-2.2 1-.4.1a41 41 0 0 1-4.4 1.3h-.3l-2.2.5h-.5l-1.7.3h-.6l-2.2.1h-53.4a.5.5 0 0 1-.6-.5v-83.4a.5.5 0 0 1 .6-.5h.8a50 50 0 0 0 29.3 9.3c18.5 0 45.8-10.1 45.8-31.3v-37.2h-31.8v37.7c0 11.5-9.3 20.1-21.6 20.1-11.2 0-21-7.1-23-16.6v-75.6c0-25.1 16.8-42.1 42-42.1h52c.3 0 .5.2.5.5V243zM303 164v161.3c0 7.4-2.2 14.2-5.9 20.1l-.1.2-1.5 2.2-.1.2-1.8 2.2a45 45 0 0 1-1.8 2l-.2.3a46.3 46.3 0 0 1-8.7 7 47.2 47.2 0 0 1-2.5 1.5l-.1.2-2.3 1.1-.5.2-2 .9-.4.2-2.3.8-.4.1-2 .5-.5.2-2.4.5h-.3l-2 .2-.6.1h-55.3a.5.5 0 0 1-.5-.4v-88.3a.5.5 0 0 1 1-.4 26.4 26.4 0 0 0 8.5 5.8h.1c1.2.5 2.5 1 3.7 1.3h.2l1.7.5h.3l1.9.3h.2a30.7 30.7 0 0 0 4 .3h55.4v-9a175 175 0 0 1-31.8 3.7 25.6 25.6 0 0 1-25.6-25.5v-.5c0-14 11.5-25.5 25.6-25.5 6 0 18.4 1.3 31.8 4.2v-10h-57.4l-.6.1-1.5.2h-.5l-1.9.4-.2.1a30.5 30.5 0 0 0-3.5 1.1l-.3.1-1.7.8h-.2l-1.4.8-.3.1a36.5 36.5 0 0 0-6.6 4.5.5.5 0 0 1-.9-.4v-42.7c0-9 2.1-16.9 6-23.3 1.7-2.9 3.8-5.5 6.2-7.7l.1-.1c1.8-1.7 3.8-3.1 5.9-4.4l.3-.2 1.9-1 .3-.2 4.5-2 .5-.1a43.5 43.5 0 0 1 4.6-1.4h.4c.8-.3 1.7-.4 2.6-.6h.5a52 52 0 0 1 4.8-.6h.9l2.7-.1h51.5c.3 0 .5.2.5.5v17.7zm106 161.4c0 22.9-22 40.7-40.8 40.7h-53a.5.5 0 0 1-.5-.5v-80c0-.2.2-.5.5-.5H377c9.8 0 17.1-6.5 17.1-15.1v-1.5l-.1-.5-.2-1-.2-.6-.2-.8-.2-.6a13 13 0 0 0-.6-1.4l-.4-.6a13 13 0 0 0-1.2-1.9l-.4-.4-.6-.7-.3-.3-.8-.7-.2-.1a18 18 0 0 0-11.7-4 .5.5 0 1 1 0-1.2c1 0 2 0 3-.3l.8-.1.7-.2.7-.3.7-.3.7-.3.6-.3.6-.4c.3 0 .5-.2.7-.3l.6-.5.6-.4a17.2 17.2 0 0 0 3.8-4.4l.3-.6.4-.7.3-.7.3-.7.2-.6.2-.9.1-.6.2-1v-.5l.1-1.5c0-8.5-7.1-15.6-15.6-15.6h-61.8a.5.5 0 0 1-.5-.6v-35.6a42.6 42.6 0 0 1 10.2-27.1 23.7 23.7 0 0 1 .2-.3l.2-.2v-.1h.1a42 42 0 0 1 32-12.7h51c.3 0 .5.2.5.5v179zm-77.6-69.7h23a12.3 12.3 0 0 1 11.8 12.7v.5c-.8 5.6-6 10.4-11.7 10.4h-23a.5.5 0 0 1-.6-.5v-22.6c0-.3.2-.5.5-.5zm-.5-4.8v-22.1c0-.3.2-.5.5-.5H354a12.3 12.3 0 0 1 11.8 11.8 9.5 9.5 0 0 1-.2 1.8c-1 5.3-5.6 9.5-11.1 9.5h-23a.5.5 0 0 1-.6-.5z"/>
</svg>
